<?xml version="1.0" encoding="UTF-8" standalone="no"?>
<svg
   viewBox="0 0 100 100"
   version="1.1"
   id="svg2"
   xmlns="http://www.w3.org/2000/svg"
   xmlns:svg="http://www.w3.org/2000/svg">
  <defs
     id="defs2" />
  <style
     id="style1">
    .bg { fill: #ffffff; }
    .fg { fill: #111; }
  </style>
  <rect
     class="bg"
     width="100"
     height="100"
     rx="8"
     ry="8"
     id="rect1" />
  <g
     class="fg"
     font-family="'Berkeley Mono', ui-monospace, SFMono-Regular, Menlo, Monaco, Consolas, monospace"
     font-size="60"
     text-anchor="middle"
     id="g2">
    <path
       d="m 26.808988,60.407997 3.66,2.7 2.88,-3.9 2.76,-5.46 2.7,5.4 2.88,3.96 3.66,-2.7 -2.88,-3.9 -4.26,-4.26 6,-0.96 4.62,-1.5 -1.44,-4.32 -4.62,1.5 -5.4,2.76 0.96,-6 v -4.86 h -4.56 v 4.86 l 0.96,6 -5.4,-2.82 -4.62,-1.5 -1.38,4.38 4.62,1.5 6,0.9 -4.32,4.32 z"
       id="text1"
       aria-label="*" />
    <path
       d="m 51.688992,72.047997 h 4.8 v -15.9 c 0,-9.36 1.5,-11.4 8.34,-11.4 5.58,0 6.84,1.32 6.84,7.5 v 19.8 h 4.8 v -19.8 c 0,-9.72 -1.86,-11.88 -10.44,-11.88 -5.88,0 -7.56,0.96 -9.24,5.34 h -0.3 v -17.7 h -4.8 z"
       id="text2"
       transform="matrix(1,0,-0.21255656,1,10.531753,0)"
       aria-label="h" />
  </g>
</svg>
